<?xml version='1.0' encoding='UTF-8'?>
<!DOCTYPE svg PUBLIC "-//W3C//DTD SVG 1.0//EN" "http://www.w3.org/TR/2001/REC-SVG-20010904/DTD/svg10.dtd">
<svg viewBox="0 0 1856 360" xmlns="http://www.w3.org/2000/svg" xmlns:inkspace="http://www.inkscape.org/namespaces/inkscape" xmlns:xlink="http://www.w3.org/1999/xlink">
  <defs id="defs_block">
    <filter height="1.504" id="filter_blur" inkspace:collect="always" width="1.1575" x="-0.07875" y="-0.252">
      <feGaussianBlur id="feGaussianBlur3780" inkspace:collect="always" stdDeviation="4.2" />
    </filter>
  </defs>
  <title>blockdiag</title>
  <desc>blockdiag {
  orientation = portrait;
  default_shape = roundedbox;

  node_width = 160;
  //span_width = 40;

  korrpcdid_sup -&gt; korrpcdid_tcp_sup;
  korrpcdid_sup -&gt; korrpcdid_call_sup;
  korrpcdid_sup -&gt; korrpc_sdb_sup;
  korrpcdid_sup -&gt; korrpcdid_hostdb_sup;
  korrpcdid_sup -&gt; korrpcdid_log;
  korrpcdid_tcp_sup -&gt; korrpcdid_tcp_listener;
  korrpcdid_tcp_sup -&gt; korrpcdid_tcp_worker_sup;
  korrpcdid_tcp_worker_sup -&gt; korrpcdid_tcp_worker;
  korrpcdid_call_sup -&gt; korrpcdid_call_queue;
  korrpcdid_call_sup -&gt; korrpcdid_caller_sup;
  korrpcdid_caller_sup -&gt; korrpcdid_caller;
  korrpc_sdb_sup -&gt; korrpc_sdb;
  korrpcdid_hostdb_sup -&gt; korrpcdid_hostdb;
  korrpcdid_hostdb_sup -&gt; korrpcdid_hostdb_refresh;

  korrpcdid_tcp_listener  [stacked];
  korrpcdid_tcp_worker    [stacked];
  korrpcdid_caller        [stacked];
  korrpc_sdb              [stacked];

  group data_serving {
    color = "#E6FFCC";
    korrpcdid_tcp_sup;
    korrpcdid_tcp_listener;
    korrpcdid_tcp_worker_sup;
    korrpcdid_tcp_worker;
  }
  group calling_rpc {
    color = "#E6CCFF";
    korrpcdid_call_sup;
    korrpcdid_call_queue;
    korrpcdid_caller_sup;
    korrpcdid_caller;
  }
  group storing_results {
    color = "#FFCCCC";
    korrpc_sdb_sup;
    korrpc_sdb;
  }
  group host_db {
    color = "#CCFFFF";
    korrpcdid_hostdb_sup;
    korrpcdid_hostdb;
    korrpcdid_hostdb_refresh;
  }
}

// vim:ft=dot
</desc>
  <rect fill="rgb(230,255,204)" height="220" style="filter:url(#filter_blur)" width="400" x="280" y="110" />
  <rect fill="rgb(230,204,255)" height="220" style="filter:url(#filter_blur)" width="400" x="728" y="110" />
  <rect fill="rgb(255,204,204)" height="140" style="filter:url(#filter_blur)" width="176" x="1176" y="110" />
  <rect fill="rgb(204,255,255)" height="140" style="filter:url(#filter_blur)" width="400" x="1400" y="110" />
  <path d="M 75 46 L 219 46 A8,8 0 0 1 227 54 L 227 78 A8,8 0 0 1 219 86 L 75 86 A8,8 0 0 1 67 78 L 67 54 A8,8 0 0 1 75 46" fill="rgb(0,0,0)" stroke="rgb(0,0,0)" style="filter:url(#filter_blur);opacity:0.7;fill-opacity:1" />
  <path d="M 75 126 L 219 126 A8,8 0 0 1 227 134 L 227 158 A8,8 0 0 1 219 166 L 75 166 A8,8 0 0 1 67 158 L 67 134 A8,8 0 0 1 75 126" fill="rgb(0,0,0)" stroke="rgb(0,0,0)" style="filter:url(#filter_blur);opacity:0.7;fill-opacity:1" />
  <path d="M 299 126 L 443 126 A8,8 0 0 1 451 134 L 451 158 A8,8 0 0 1 443 166 L 299 166 A8,8 0 0 1 291 158 L 291 134 A8,8 0 0 1 299 126" fill="rgb(0,0,0)" stroke="rgb(0,0,0)" style="filter:url(#filter_blur);opacity:0.7;fill-opacity:1" />
  <path d="M 307 214 L 451 214 A8,8 0 0 1 459 222 L 459 246 A8,8 0 0 1 451 254 L 307 254 A8,8 0 0 1 299 246 L 299 222 A8,8 0 0 1 307 214" fill="rgb(0,0,0)" stroke="rgb(0,0,0)" style="filter:url(#filter_blur);opacity:0.7;fill-opacity:1" />
  <path d="M 303 210 L 447 210 A8,8 0 0 1 455 218 L 455 242 A8,8 0 0 1 447 250 L 303 250 A8,8 0 0 1 295 242 L 295 218 A8,8 0 0 1 303 210" fill="rgb(0,0,0)" stroke="rgb(0,0,0)" style="filter:url(#filter_blur);opacity:0.7;fill-opacity:1" />
  <path d="M 299 206 L 443 206 A8,8 0 0 1 451 214 L 451 238 A8,8 0 0 1 443 246 L 299 246 A8,8 0 0 1 291 238 L 291 214 A8,8 0 0 1 299 206" fill="rgb(0,0,0)" stroke="rgb(0,0,0)" style="filter:url(#filter_blur);opacity:0.7;fill-opacity:1" />
  <path d="M 523 206 L 667 206 A8,8 0 0 1 675 214 L 675 238 A8,8 0 0 1 667 246 L 523 246 A8,8 0 0 1 515 238 L 515 214 A8,8 0 0 1 523 206" fill="rgb(0,0,0)" stroke="rgb(0,0,0)" style="filter:url(#filter_blur);opacity:0.7;fill-opacity:1" />
  <path d="M 531 294 L 675 294 A8,8 0 0 1 683 302 L 683 326 A8,8 0 0 1 675 334 L 531 334 A8,8 0 0 1 523 326 L 523 302 A8,8 0 0 1 531 294" fill="rgb(0,0,0)" stroke="rgb(0,0,0)" style="filter:url(#filter_blur);opacity:0.7;fill-opacity:1" />
  <path d="M 527 290 L 671 290 A8,8 0 0 1 679 298 L 679 322 A8,8 0 0 1 671 330 L 527 330 A8,8 0 0 1 519 322 L 519 298 A8,8 0 0 1 527 290" fill="rgb(0,0,0)" stroke="rgb(0,0,0)" style="filter:url(#filter_blur);opacity:0.7;fill-opacity:1" />
  <path d="M 523 286 L 667 286 A8,8 0 0 1 675 294 L 675 318 A8,8 0 0 1 667 326 L 523 326 A8,8 0 0 1 515 318 L 515 294 A8,8 0 0 1 523 286" fill="rgb(0,0,0)" stroke="rgb(0,0,0)" style="filter:url(#filter_blur);opacity:0.7;fill-opacity:1" />
  <path d="M 747 126 L 891 126 A8,8 0 0 1 899 134 L 899 158 A8,8 0 0 1 891 166 L 747 166 A8,8 0 0 1 739 158 L 739 134 A8,8 0 0 1 747 126" fill="rgb(0,0,0)" stroke="rgb(0,0,0)" style="filter:url(#filter_blur);opacity:0.7;fill-opacity:1" />
  <path d="M 747 206 L 891 206 A8,8 0 0 1 899 214 L 899 238 A8,8 0 0 1 891 246 L 747 246 A8,8 0 0 1 739 238 L 739 214 A8,8 0 0 1 747 206" fill="rgb(0,0,0)" stroke="rgb(0,0,0)" style="filter:url(#filter_blur);opacity:0.7;fill-opacity:1" />
  <path d="M 971 206 L 1115 206 A8,8 0 0 1 1123 214 L 1123 238 A8,8 0 0 1 1115 246 L 971 246 A8,8 0 0 1 963 238 L 963 214 A8,8 0 0 1 971 206" fill="rgb(0,0,0)" stroke="rgb(0,0,0)" style="filter:url(#filter_blur);opacity:0.7;fill-opacity:1" />
  <path d="M 979 294 L 1123 294 A8,8 0 0 1 1131 302 L 1131 326 A8,8 0 0 1 1123 334 L 979 334 A8,8 0 0 1 971 326 L 971 302 A8,8 0 0 1 979 294" fill="rgb(0,0,0)" stroke="rgb(0,0,0)" style="filter:url(#filter_blur);opacity:0.7;fill-opacity:1" />
  <path d="M 975 290 L 1119 290 A8,8 0 0 1 1127 298 L 1127 322 A8,8 0 0 1 1119 330 L 975 330 A8,8 0 0 1 967 322 L 967 298 A8,8 0 0 1 975 290" fill="rgb(0,0,0)" stroke="rgb(0,0,0)" style="filter:url(#filter_blur);opacity:0.7;fill-opacity:1" />
  <path d="M 971 286 L 1115 286 A8,8 0 0 1 1123 294 L 1123 318 A8,8 0 0 1 1115 326 L 971 326 A8,8 0 0 1 963 318 L 963 294 A8,8 0 0 1 971 286" fill="rgb(0,0,0)" stroke="rgb(0,0,0)" style="filter:url(#filter_blur);opacity:0.7;fill-opacity:1" />
  <path d="M 1195 126 L 1339 126 A8,8 0 0 1 1347 134 L 1347 158 A8,8 0 0 1 1339 166 L 1195 166 A8,8 0 0 1 1187 158 L 1187 134 A8,8 0 0 1 1195 126" fill="rgb(0,0,0)" stroke="rgb(0,0,0)" style="filter:url(#filter_blur);opacity:0.7;fill-opacity:1" />
  <path d="M 1203 214 L 1347 214 A8,8 0 0 1 1355 222 L 1355 246 A8,8 0 0 1 1347 254 L 1203 254 A8,8 0 0 1 1195 246 L 1195 222 A8,8 0 0 1 1203 214" fill="rgb(0,0,0)" stroke="rgb(0,0,0)" style="filter:url(#filter_blur);opacity:0.7;fill-opacity:1" />
  <path d="M 1199 210 L 1343 210 A8,8 0 0 1 1351 218 L 1351 242 A8,8 0 0 1 1343 250 L 1199 250 A8,8 0 0 1 1191 242 L 1191 218 A8,8 0 0 1 1199 210" fill="rgb(0,0,0)" stroke="rgb(0,0,0)" style="filter:url(#filter_blur);opacity:0.7;fill-opacity:1" />
  <path d="M 1195 206 L 1339 206 A8,8 0 0 1 1347 214 L 1347 238 A8,8 0 0 1 1339 246 L 1195 246 A8,8 0 0 1 1187 238 L 1187 214 A8,8 0 0 1 1195 206" fill="rgb(0,0,0)" stroke="rgb(0,0,0)" style="filter:url(#filter_blur);opacity:0.7;fill-opacity:1" />
  <path d="M 1419 126 L 1563 126 A8,8 0 0 1 1571 134 L 1571 158 A8,8 0 0 1 1563 166 L 1419 166 A8,8 0 0 1 1411 158 L 1411 134 A8,8 0 0 1 1419 126" fill="rgb(0,0,0)" stroke="rgb(0,0,0)" style="filter:url(#filter_blur);opacity:0.7;fill-opacity:1" />
  <path d="M 1419 206 L 1563 206 A8,8 0 0 1 1571 214 L 1571 238 A8,8 0 0 1 1563 246 L 1419 246 A8,8 0 0 1 1411 238 L 1411 214 A8,8 0 0 1 1419 206" fill="rgb(0,0,0)" stroke="rgb(0,0,0)" style="filter:url(#filter_blur);opacity:0.7;fill-opacity:1" />
  <path d="M 1643 206 L 1787 206 A8,8 0 0 1 1795 214 L 1795 238 A8,8 0 0 1 1787 246 L 1643 246 A8,8 0 0 1 1635 238 L 1635 214 A8,8 0 0 1 1643 206" fill="rgb(0,0,0)" stroke="rgb(0,0,0)" style="filter:url(#filter_blur);opacity:0.7;fill-opacity:1" />
  <path d="M 72 40 L 216 40 A8,8 0 0 1 224 48 L 224 72 A8,8 0 0 1 216 80 L 72 80 A8,8 0 0 1 64 72 L 64 48 A8,8 0 0 1 72 40" fill="rgb(255,255,255)" stroke="rgb(0,0,0)" />
  <text fill="rgb(0,0,0)" font-family="sansserif" font-size="11" font-style="normal" font-weight="normal" x="105" y="66">korrpcdid_sup</text>
  <path d="M 72 120 L 216 120 A8,8 0 0 1 224 128 L 224 152 A8,8 0 0 1 216 160 L 72 160 A8,8 0 0 1 64 152 L 64 128 A8,8 0 0 1 72 120" fill="rgb(255,255,255)" stroke="rgb(0,0,0)" />
  <text fill="rgb(0,0,0)" font-family="sansserif" font-size="11" font-style="normal" font-weight="normal" x="105" y="146">korrpcdid_log</text>
  <path d="M 296 120 L 440 120 A8,8 0 0 1 448 128 L 448 152 A8,8 0 0 1 440 160 L 296 160 A8,8 0 0 1 288 152 L 288 128 A8,8 0 0 1 296 120" fill="rgb(255,255,255)" stroke="rgb(0,0,0)" />
  <text fill="rgb(0,0,0)" font-family="sansserif" font-size="11" font-style="normal" font-weight="normal" x="317" y="146">korrpcdid_tcp_sup</text>
  <path d="M 304 208 L 448 208 A8,8 0 0 1 456 216 L 456 240 A8,8 0 0 1 448 248 L 304 248 A8,8 0 0 1 296 240 L 296 216 A8,8 0 0 1 304 208" fill="rgb(255,255,255)" stroke="rgb(0,0,0)" />
  <path d="M 300 204 L 444 204 A8,8 0 0 1 452 212 L 452 236 A8,8 0 0 1 444 244 L 300 244 A8,8 0 0 1 292 236 L 292 212 A8,8 0 0 1 300 204" fill="rgb(255,255,255)" stroke="rgb(0,0,0)" />
  <path d="M 296 200 L 440 200 A8,8 0 0 1 448 208 L 448 232 A8,8 0 0 1 440 240 L 296 240 A8,8 0 0 1 288 232 L 288 208 A8,8 0 0 1 296 200" fill="rgb(255,255,255)" stroke="rgb(0,0,0)" />
  <text fill="rgb(0,0,0)" font-family="sansserif" font-size="11" font-style="normal" font-weight="normal" x="302" y="226">korrpcdid_tcp_listener</text>
  <path d="M 520 200 L 664 200 A8,8 0 0 1 672 208 L 672 232 A8,8 0 0 1 664 240 L 520 240 A8,8 0 0 1 512 232 L 512 208 A8,8 0 0 1 520 200" fill="rgb(255,255,255)" stroke="rgb(0,0,0)" />
  <text fill="rgb(0,0,0)" font-family="sansserif" font-size="11" font-style="normal" font-weight="normal" x="520" y="226">korrpcdid_tcp_worker_sup</text>
  <path d="M 528 288 L 672 288 A8,8 0 0 1 680 296 L 680 320 A8,8 0 0 1 672 328 L 528 328 A8,8 0 0 1 520 320 L 520 296 A8,8 0 0 1 528 288" fill="rgb(255,255,255)" stroke="rgb(0,0,0)" />
  <path d="M 524 284 L 668 284 A8,8 0 0 1 676 292 L 676 316 A8,8 0 0 1 668 324 L 524 324 A8,8 0 0 1 516 316 L 516 292 A8,8 0 0 1 524 284" fill="rgb(255,255,255)" stroke="rgb(0,0,0)" />
  <path d="M 520 280 L 664 280 A8,8 0 0 1 672 288 L 672 312 A8,8 0 0 1 664 320 L 520 320 A8,8 0 0 1 512 312 L 512 288 A8,8 0 0 1 520 280" fill="rgb(255,255,255)" stroke="rgb(0,0,0)" />
  <text fill="rgb(0,0,0)" font-family="sansserif" font-size="11" font-style="normal" font-weight="normal" x="532" y="306">korrpcdid_tcp_worker</text>
  <path d="M 744 120 L 888 120 A8,8 0 0 1 896 128 L 896 152 A8,8 0 0 1 888 160 L 744 160 A8,8 0 0 1 736 152 L 736 128 A8,8 0 0 1 744 120" fill="rgb(255,255,255)" stroke="rgb(0,0,0)" />
  <text fill="rgb(0,0,0)" font-family="sansserif" font-size="11" font-style="normal" font-weight="normal" x="762" y="146">korrpcdid_call_sup</text>
  <path d="M 744 200 L 888 200 A8,8 0 0 1 896 208 L 896 232 A8,8 0 0 1 888 240 L 744 240 A8,8 0 0 1 736 232 L 736 208 A8,8 0 0 1 744 200" fill="rgb(255,255,255)" stroke="rgb(0,0,0)" />
  <text fill="rgb(0,0,0)" font-family="sansserif" font-size="11" font-style="normal" font-weight="normal" x="756" y="226">korrpcdid_call_queue</text>
  <path d="M 968 200 L 1112 200 A8,8 0 0 1 1120 208 L 1120 232 A8,8 0 0 1 1112 240 L 968 240 A8,8 0 0 1 960 232 L 960 208 A8,8 0 0 1 968 200" fill="rgb(255,255,255)" stroke="rgb(0,0,0)" />
  <text fill="rgb(0,0,0)" font-family="sansserif" font-size="11" font-style="normal" font-weight="normal" x="980" y="226">korrpcdid_caller_sup</text>
  <path d="M 976 288 L 1120 288 A8,8 0 0 1 1128 296 L 1128 320 A8,8 0 0 1 1120 328 L 976 328 A8,8 0 0 1 968 320 L 968 296 A8,8 0 0 1 976 288" fill="rgb(255,255,255)" stroke="rgb(0,0,0)" />
  <path d="M 972 284 L 1116 284 A8,8 0 0 1 1124 292 L 1124 316 A8,8 0 0 1 1116 324 L 972 324 A8,8 0 0 1 964 316 L 964 292 A8,8 0 0 1 972 284" fill="rgb(255,255,255)" stroke="rgb(0,0,0)" />
  <path d="M 968 280 L 1112 280 A8,8 0 0 1 1120 288 L 1120 312 A8,8 0 0 1 1112 320 L 968 320 A8,8 0 0 1 960 312 L 960 288 A8,8 0 0 1 968 280" fill="rgb(255,255,255)" stroke="rgb(0,0,0)" />
  <text fill="rgb(0,0,0)" font-family="sansserif" font-size="11" font-style="normal" font-weight="normal" x="992" y="306">korrpcdid_caller</text>
  <path d="M 1192 120 L 1336 120 A8,8 0 0 1 1344 128 L 1344 152 A8,8 0 0 1 1336 160 L 1192 160 A8,8 0 0 1 1184 152 L 1184 128 A8,8 0 0 1 1192 120" fill="rgb(255,255,255)" stroke="rgb(0,0,0)" />
  <text fill="rgb(0,0,0)" font-family="sansserif" font-size="11" font-style="normal" font-weight="normal" x="1222" y="146">korrpc_sdb_sup</text>
  <path d="M 1200 208 L 1344 208 A8,8 0 0 1 1352 216 L 1352 240 A8,8 0 0 1 1344 248 L 1200 248 A8,8 0 0 1 1192 240 L 1192 216 A8,8 0 0 1 1200 208" fill="rgb(255,255,255)" stroke="rgb(0,0,0)" />
  <path d="M 1196 204 L 1340 204 A8,8 0 0 1 1348 212 L 1348 236 A8,8 0 0 1 1340 244 L 1196 244 A8,8 0 0 1 1188 236 L 1188 212 A8,8 0 0 1 1196 204" fill="rgb(255,255,255)" stroke="rgb(0,0,0)" />
  <path d="M 1192 200 L 1336 200 A8,8 0 0 1 1344 208 L 1344 232 A8,8 0 0 1 1336 240 L 1192 240 A8,8 0 0 1 1184 232 L 1184 208 A8,8 0 0 1 1192 200" fill="rgb(255,255,255)" stroke="rgb(0,0,0)" />
  <text fill="rgb(0,0,0)" font-family="sansserif" font-size="11" font-style="normal" font-weight="normal" x="1234" y="226">korrpc_sdb</text>
  <path d="M 1416 120 L 1560 120 A8,8 0 0 1 1568 128 L 1568 152 A8,8 0 0 1 1560 160 L 1416 160 A8,8 0 0 1 1408 152 L 1408 128 A8,8 0 0 1 1416 120" fill="rgb(255,255,255)" stroke="rgb(0,0,0)" />
  <text fill="rgb(0,0,0)" font-family="sansserif" font-size="11" font-style="normal" font-weight="normal" x="1428" y="146">korrpcdid_hostdb_sup</text>
  <path d="M 1416 200 L 1560 200 A8,8 0 0 1 1568 208 L 1568 232 A8,8 0 0 1 1560 240 L 1416 240 A8,8 0 0 1 1408 232 L 1408 208 A8,8 0 0 1 1416 200" fill="rgb(255,255,255)" stroke="rgb(0,0,0)" />
  <text fill="rgb(0,0,0)" font-family="sansserif" font-size="11" font-style="normal" font-weight="normal" x="1440" y="226">korrpcdid_hostdb</text>
  <path d="M 1640 200 L 1784 200 A8,8 0 0 1 1792 208 L 1792 232 A8,8 0 0 1 1784 240 L 1640 240 A8,8 0 0 1 1632 232 L 1632 208 A8,8 0 0 1 1640 200" fill="rgb(255,255,255)" stroke="rgb(0,0,0)" />
  <text fill="rgb(0,0,0)" font-family="sansserif" font-size="11" font-style="normal" font-weight="normal" x="1640" y="226">korrpcdid_hostdb_refresh</text>
  <path d="M 144 80 L 144 100" fill="none" stroke="rgb(0,0,0)" />
  <path d="M 144 100 L 816 100" fill="none" stroke="rgb(0,0,0)" />
  <path d="M 816 100 L 816 112" fill="none" stroke="rgb(0,0,0)" />
  <polygon fill="rgb(0,0,0)" points="816,119 812,112 820,112 816,119" stroke="rgb(0,0,0)" />
  <path d="M 144 80 L 144 100" fill="none" stroke="rgb(0,0,0)" />
  <path d="M 144 100 L 1488 100" fill="none" stroke="rgb(0,0,0)" />
  <path d="M 1488 100 L 1488 112" fill="none" stroke="rgb(0,0,0)" />
  <polygon fill="rgb(0,0,0)" points="1488,119 1484,112 1492,112 1488,119" stroke="rgb(0,0,0)" />
  <path d="M 144 80 L 144 100" fill="none" stroke="rgb(0,0,0)" />
  <path d="M 144 100 L 368 100" fill="none" stroke="rgb(0,0,0)" />
  <path d="M 368 100 L 368 112" fill="none" stroke="rgb(0,0,0)" />
  <polygon fill="rgb(0,0,0)" points="368,119 364,112 372,112 368,119" stroke="rgb(0,0,0)" />
  <path d="M 144 80 L 144 112" fill="none" stroke="rgb(0,0,0)" />
  <polygon fill="rgb(0,0,0)" points="144,119 140,112 148,112 144,119" stroke="rgb(0,0,0)" />
  <path d="M 144 80 L 144 100" fill="none" stroke="rgb(0,0,0)" />
  <path d="M 144 100 L 1264 100" fill="none" stroke="rgb(0,0,0)" />
  <path d="M 1264 100 L 1264 112" fill="none" stroke="rgb(0,0,0)" />
  <polygon fill="rgb(0,0,0)" points="1264,119 1260,112 1268,112 1264,119" stroke="rgb(0,0,0)" />
  <path d="M 368 160 L 368 180" fill="none" stroke="rgb(0,0,0)" />
  <path d="M 368 180 L 592 180" fill="none" stroke="rgb(0,0,0)" />
  <path d="M 592 180 L 592 192" fill="none" stroke="rgb(0,0,0)" />
  <polygon fill="rgb(0,0,0)" points="592,199 588,192 596,192 592,199" stroke="rgb(0,0,0)" />
  <path d="M 368 160 L 368 192" fill="none" stroke="rgb(0,0,0)" />
  <polygon fill="rgb(0,0,0)" points="368,199 364,192 372,192 368,199" stroke="rgb(0,0,0)" />
  <path d="M 592 240 L 592 272" fill="none" stroke="rgb(0,0,0)" />
  <polygon fill="rgb(0,0,0)" points="592,279 588,272 596,272 592,279" stroke="rgb(0,0,0)" />
  <path d="M 816 160 L 816 192" fill="none" stroke="rgb(0,0,0)" />
  <polygon fill="rgb(0,0,0)" points="816,199 812,192 820,192 816,199" stroke="rgb(0,0,0)" />
  <path d="M 816 160 L 816 180" fill="none" stroke="rgb(0,0,0)" />
  <path d="M 816 180 L 1040 180" fill="none" stroke="rgb(0,0,0)" />
  <path d="M 1040 180 L 1040 192" fill="none" stroke="rgb(0,0,0)" />
  <polygon fill="rgb(0,0,0)" points="1040,199 1036,192 1044,192 1040,199" stroke="rgb(0,0,0)" />
  <path d="M 1040 240 L 1040 272" fill="none" stroke="rgb(0,0,0)" />
  <polygon fill="rgb(0,0,0)" points="1040,279 1036,272 1044,272 1040,279" stroke="rgb(0,0,0)" />
  <path d="M 1264 160 L 1264 192" fill="none" stroke="rgb(0,0,0)" />
  <polygon fill="rgb(0,0,0)" points="1264,199 1260,192 1268,192 1264,199" stroke="rgb(0,0,0)" />
  <path d="M 1488 160 L 1488 192" fill="none" stroke="rgb(0,0,0)" />
  <polygon fill="rgb(0,0,0)" points="1488,199 1484,192 1492,192 1488,199" stroke="rgb(0,0,0)" />
  <path d="M 1488 160 L 1488 180" fill="none" stroke="rgb(0,0,0)" />
  <path d="M 1488 180 L 1712 180" fill="none" stroke="rgb(0,0,0)" />
  <path d="M 1712 180 L 1712 192" fill="none" stroke="rgb(0,0,0)" />
  <polygon fill="rgb(0,0,0)" points="1712,199 1708,192 1716,192 1712,199" stroke="rgb(0,0,0)" />
</svg>
