<?xml version='1.0' encoding='UTF-8'?>
<!DOCTYPE svg PUBLIC "-//W3C//DTD SVG 1.0//EN" "http://www.w3.org/TR/2001/REC-SVG-20010904/DTD/svg10.dtd">
<svg viewBox="0 0 2304 360" xmlns="http://www.w3.org/2000/svg" xmlns:inkspace="http://www.inkscape.org/namespaces/inkscape" xmlns:xlink="http://www.w3.org/1999/xlink">
  <defs id="defs_block">
    <filter height="1.504" id="filter_blur" inkspace:collect="always" width="1.1575" x="-0.07875" y="-0.252">
      <feGaussianBlur id="feGaussianBlur3780" inkspace:collect="always" stdDeviation="4.2" />
    </filter>
  </defs>
  <title>blockdiag</title>
  <desc>blockdiag {
  orientation = portrait;
  default_shape = roundedbox;

  node_width = 160;
  //span_width = 40;

  harpcaller_sup -&gt; harpcaller_tcp_sup;
  harpcaller_sup -&gt; harpcaller_call_sup;
  harpcaller_sup -&gt; harp_sdb_sup;
  harpcaller_sup -&gt; harp_sdb_cleanup;
  harpcaller_sup -&gt; harpcaller_hostdb_sup;
  harpcaller_sup -&gt; harpcaller_log;
  harpcaller_tcp_sup -&gt; harpcaller_tcp_listener;
  harpcaller_tcp_sup -&gt; harpcaller_tcp_worker_sup;
  harpcaller_tcp_worker_sup -&gt; harpcaller_tcp_worker;
  harpcaller_call_sup -&gt; harpcaller_call_queue;
  harpcaller_call_sup -&gt; harpcaller_x509_store;
  harpcaller_call_sup -&gt; harpcaller_caller_sup;
  harpcaller_caller_sup -&gt; harpcaller_caller;
  harp_sdb_sup -&gt; harp_sdb;
  harpcaller_hostdb_sup -&gt; harpcaller_hostdb;
  harpcaller_hostdb_sup -&gt; harpcaller_hostdb_refresh;

  harpcaller_tcp_listener  [stacked];
  harpcaller_tcp_worker    [stacked];
  harpcaller_caller        [stacked];
  harp_sdb                 [stacked];

  group data_serving {
    color = "#E6FFCC";
    harpcaller_tcp_sup;
    harpcaller_tcp_listener;
    harpcaller_tcp_worker_sup;
    harpcaller_tcp_worker;
  }
  group calling_rpc {
    color = "#E6CCFF";
    harpcaller_call_sup;
    harpcaller_call_queue;
    harpcaller_x509_store;
    harpcaller_caller_sup;
    harpcaller_caller;
  }
  group storing_results {
    color = "#FFCCCC";
    harp_sdb_sup;
    harp_sdb;
  }
  group host_db {
    color = "#CCFFFF";
    harpcaller_hostdb_sup;
    harpcaller_hostdb;
    harpcaller_hostdb_refresh;
  }
}

// vim:ft=dot
</desc>
  <rect fill="rgb(230,255,204)" height="220" style="filter:url(#filter_blur)" width="400" x="504" y="110" />
  <rect fill="rgb(230,204,255)" height="220" style="filter:url(#filter_blur)" width="624" x="952" y="110" />
  <rect fill="rgb(255,204,204)" height="140" style="filter:url(#filter_blur)" width="176" x="1624" y="110" />
  <rect fill="rgb(204,255,255)" height="140" style="filter:url(#filter_blur)" width="400" x="1848" y="110" />
  <path d="M 75 46 L 219 46 A8,8 0 0 1 227 54 L 227 78 A8,8 0 0 1 219 86 L 75 86 A8,8 0 0 1 67 78 L 67 54 A8,8 0 0 1 75 46" fill="rgb(0,0,0)" stroke="rgb(0,0,0)" style="filter:url(#filter_blur);opacity:0.7;fill-opacity:1" />
  <path d="M 75 126 L 219 126 A8,8 0 0 1 227 134 L 227 158 A8,8 0 0 1 219 166 L 75 166 A8,8 0 0 1 67 158 L 67 134 A8,8 0 0 1 75 126" fill="rgb(0,0,0)" stroke="rgb(0,0,0)" style="filter:url(#filter_blur);opacity:0.7;fill-opacity:1" />
  <path d="M 299 126 L 443 126 A8,8 0 0 1 451 134 L 451 158 A8,8 0 0 1 443 166 L 299 166 A8,8 0 0 1 291 158 L 291 134 A8,8 0 0 1 299 126" fill="rgb(0,0,0)" stroke="rgb(0,0,0)" style="filter:url(#filter_blur);opacity:0.7;fill-opacity:1" />
  <path d="M 523 126 L 667 126 A8,8 0 0 1 675 134 L 675 158 A8,8 0 0 1 667 166 L 523 166 A8,8 0 0 1 515 158 L 515 134 A8,8 0 0 1 523 126" fill="rgb(0,0,0)" stroke="rgb(0,0,0)" style="filter:url(#filter_blur);opacity:0.7;fill-opacity:1" />
  <path d="M 531 214 L 675 214 A8,8 0 0 1 683 222 L 683 246 A8,8 0 0 1 675 254 L 531 254 A8,8 0 0 1 523 246 L 523 222 A8,8 0 0 1 531 214" fill="rgb(0,0,0)" stroke="rgb(0,0,0)" style="filter:url(#filter_blur);opacity:0.7;fill-opacity:1" />
  <path d="M 527 210 L 671 210 A8,8 0 0 1 679 218 L 679 242 A8,8 0 0 1 671 250 L 527 250 A8,8 0 0 1 519 242 L 519 218 A8,8 0 0 1 527 210" fill="rgb(0,0,0)" stroke="rgb(0,0,0)" style="filter:url(#filter_blur);opacity:0.7;fill-opacity:1" />
  <path d="M 523 206 L 667 206 A8,8 0 0 1 675 214 L 675 238 A8,8 0 0 1 667 246 L 523 246 A8,8 0 0 1 515 238 L 515 214 A8,8 0 0 1 523 206" fill="rgb(0,0,0)" stroke="rgb(0,0,0)" style="filter:url(#filter_blur);opacity:0.7;fill-opacity:1" />
  <path d="M 747 206 L 891 206 A8,8 0 0 1 899 214 L 899 238 A8,8 0 0 1 891 246 L 747 246 A8,8 0 0 1 739 238 L 739 214 A8,8 0 0 1 747 206" fill="rgb(0,0,0)" stroke="rgb(0,0,0)" style="filter:url(#filter_blur);opacity:0.7;fill-opacity:1" />
  <path d="M 755 294 L 899 294 A8,8 0 0 1 907 302 L 907 326 A8,8 0 0 1 899 334 L 755 334 A8,8 0 0 1 747 326 L 747 302 A8,8 0 0 1 755 294" fill="rgb(0,0,0)" stroke="rgb(0,0,0)" style="filter:url(#filter_blur);opacity:0.7;fill-opacity:1" />
  <path d="M 751 290 L 895 290 A8,8 0 0 1 903 298 L 903 322 A8,8 0 0 1 895 330 L 751 330 A8,8 0 0 1 743 322 L 743 298 A8,8 0 0 1 751 290" fill="rgb(0,0,0)" stroke="rgb(0,0,0)" style="filter:url(#filter_blur);opacity:0.7;fill-opacity:1" />
  <path d="M 747 286 L 891 286 A8,8 0 0 1 899 294 L 899 318 A8,8 0 0 1 891 326 L 747 326 A8,8 0 0 1 739 318 L 739 294 A8,8 0 0 1 747 286" fill="rgb(0,0,0)" stroke="rgb(0,0,0)" style="filter:url(#filter_blur);opacity:0.7;fill-opacity:1" />
  <path d="M 971 126 L 1115 126 A8,8 0 0 1 1123 134 L 1123 158 A8,8 0 0 1 1115 166 L 971 166 A8,8 0 0 1 963 158 L 963 134 A8,8 0 0 1 971 126" fill="rgb(0,0,0)" stroke="rgb(0,0,0)" style="filter:url(#filter_blur);opacity:0.7;fill-opacity:1" />
  <path d="M 971 206 L 1115 206 A8,8 0 0 1 1123 214 L 1123 238 A8,8 0 0 1 1115 246 L 971 246 A8,8 0 0 1 963 238 L 963 214 A8,8 0 0 1 971 206" fill="rgb(0,0,0)" stroke="rgb(0,0,0)" style="filter:url(#filter_blur);opacity:0.7;fill-opacity:1" />
  <path d="M 1195 206 L 1339 206 A8,8 0 0 1 1347 214 L 1347 238 A8,8 0 0 1 1339 246 L 1195 246 A8,8 0 0 1 1187 238 L 1187 214 A8,8 0 0 1 1195 206" fill="rgb(0,0,0)" stroke="rgb(0,0,0)" style="filter:url(#filter_blur);opacity:0.7;fill-opacity:1" />
  <path d="M 1419 206 L 1563 206 A8,8 0 0 1 1571 214 L 1571 238 A8,8 0 0 1 1563 246 L 1419 246 A8,8 0 0 1 1411 238 L 1411 214 A8,8 0 0 1 1419 206" fill="rgb(0,0,0)" stroke="rgb(0,0,0)" style="filter:url(#filter_blur);opacity:0.7;fill-opacity:1" />
  <path d="M 1427 294 L 1571 294 A8,8 0 0 1 1579 302 L 1579 326 A8,8 0 0 1 1571 334 L 1427 334 A8,8 0 0 1 1419 326 L 1419 302 A8,8 0 0 1 1427 294" fill="rgb(0,0,0)" stroke="rgb(0,0,0)" style="filter:url(#filter_blur);opacity:0.7;fill-opacity:1" />
  <path d="M 1423 290 L 1567 290 A8,8 0 0 1 1575 298 L 1575 322 A8,8 0 0 1 1567 330 L 1423 330 A8,8 0 0 1 1415 322 L 1415 298 A8,8 0 0 1 1423 290" fill="rgb(0,0,0)" stroke="rgb(0,0,0)" style="filter:url(#filter_blur);opacity:0.7;fill-opacity:1" />
  <path d="M 1419 286 L 1563 286 A8,8 0 0 1 1571 294 L 1571 318 A8,8 0 0 1 1563 326 L 1419 326 A8,8 0 0 1 1411 318 L 1411 294 A8,8 0 0 1 1419 286" fill="rgb(0,0,0)" stroke="rgb(0,0,0)" style="filter:url(#filter_blur);opacity:0.7;fill-opacity:1" />
  <path d="M 1643 126 L 1787 126 A8,8 0 0 1 1795 134 L 1795 158 A8,8 0 0 1 1787 166 L 1643 166 A8,8 0 0 1 1635 158 L 1635 134 A8,8 0 0 1 1643 126" fill="rgb(0,0,0)" stroke="rgb(0,0,0)" style="filter:url(#filter_blur);opacity:0.7;fill-opacity:1" />
  <path d="M 1651 214 L 1795 214 A8,8 0 0 1 1803 222 L 1803 246 A8,8 0 0 1 1795 254 L 1651 254 A8,8 0 0 1 1643 246 L 1643 222 A8,8 0 0 1 1651 214" fill="rgb(0,0,0)" stroke="rgb(0,0,0)" style="filter:url(#filter_blur);opacity:0.7;fill-opacity:1" />
  <path d="M 1647 210 L 1791 210 A8,8 0 0 1 1799 218 L 1799 242 A8,8 0 0 1 1791 250 L 1647 250 A8,8 0 0 1 1639 242 L 1639 218 A8,8 0 0 1 1647 210" fill="rgb(0,0,0)" stroke="rgb(0,0,0)" style="filter:url(#filter_blur);opacity:0.7;fill-opacity:1" />
  <path d="M 1643 206 L 1787 206 A8,8 0 0 1 1795 214 L 1795 238 A8,8 0 0 1 1787 246 L 1643 246 A8,8 0 0 1 1635 238 L 1635 214 A8,8 0 0 1 1643 206" fill="rgb(0,0,0)" stroke="rgb(0,0,0)" style="filter:url(#filter_blur);opacity:0.7;fill-opacity:1" />
  <path d="M 1867 126 L 2011 126 A8,8 0 0 1 2019 134 L 2019 158 A8,8 0 0 1 2011 166 L 1867 166 A8,8 0 0 1 1859 158 L 1859 134 A8,8 0 0 1 1867 126" fill="rgb(0,0,0)" stroke="rgb(0,0,0)" style="filter:url(#filter_blur);opacity:0.7;fill-opacity:1" />
  <path d="M 1867 206 L 2011 206 A8,8 0 0 1 2019 214 L 2019 238 A8,8 0 0 1 2011 246 L 1867 246 A8,8 0 0 1 1859 238 L 1859 214 A8,8 0 0 1 1867 206" fill="rgb(0,0,0)" stroke="rgb(0,0,0)" style="filter:url(#filter_blur);opacity:0.7;fill-opacity:1" />
  <path d="M 2091 206 L 2235 206 A8,8 0 0 1 2243 214 L 2243 238 A8,8 0 0 1 2235 246 L 2091 246 A8,8 0 0 1 2083 238 L 2083 214 A8,8 0 0 1 2091 206" fill="rgb(0,0,0)" stroke="rgb(0,0,0)" style="filter:url(#filter_blur);opacity:0.7;fill-opacity:1" />
  <path d="M 72 40 L 216 40 A8,8 0 0 1 224 48 L 224 72 A8,8 0 0 1 216 80 L 72 80 A8,8 0 0 1 64 72 L 64 48 A8,8 0 0 1 72 40" fill="rgb(255,255,255)" stroke="rgb(0,0,0)" />
  <text fill="rgb(0,0,0)" font-family="sansserif" font-size="11" font-style="normal" font-weight="normal" x="102" y="66">harpcaller_sup</text>
  <path d="M 72 120 L 216 120 A8,8 0 0 1 224 128 L 224 152 A8,8 0 0 1 216 160 L 72 160 A8,8 0 0 1 64 152 L 64 128 A8,8 0 0 1 72 120" fill="rgb(255,255,255)" stroke="rgb(0,0,0)" />
  <text fill="rgb(0,0,0)" font-family="sansserif" font-size="11" font-style="normal" font-weight="normal" x="96" y="146">harp_sdb_cleanup</text>
  <path d="M 296 120 L 440 120 A8,8 0 0 1 448 128 L 448 152 A8,8 0 0 1 440 160 L 296 160 A8,8 0 0 1 288 152 L 288 128 A8,8 0 0 1 296 120" fill="rgb(255,255,255)" stroke="rgb(0,0,0)" />
  <text fill="rgb(0,0,0)" font-family="sansserif" font-size="11" font-style="normal" font-weight="normal" x="326" y="146">harpcaller_log</text>
  <path d="M 520 120 L 664 120 A8,8 0 0 1 672 128 L 672 152 A8,8 0 0 1 664 160 L 520 160 A8,8 0 0 1 512 152 L 512 128 A8,8 0 0 1 520 120" fill="rgb(255,255,255)" stroke="rgb(0,0,0)" />
  <text fill="rgb(0,0,0)" font-family="sansserif" font-size="11" font-style="normal" font-weight="normal" x="538" y="146">harpcaller_tcp_sup</text>
  <path d="M 528 208 L 672 208 A8,8 0 0 1 680 216 L 680 240 A8,8 0 0 1 672 248 L 528 248 A8,8 0 0 1 520 240 L 520 216 A8,8 0 0 1 528 208" fill="rgb(255,255,255)" stroke="rgb(0,0,0)" />
  <path d="M 524 204 L 668 204 A8,8 0 0 1 676 212 L 676 236 A8,8 0 0 1 668 244 L 524 244 A8,8 0 0 1 516 236 L 516 212 A8,8 0 0 1 524 204" fill="rgb(255,255,255)" stroke="rgb(0,0,0)" />
  <path d="M 520 200 L 664 200 A8,8 0 0 1 672 208 L 672 232 A8,8 0 0 1 664 240 L 520 240 A8,8 0 0 1 512 232 L 512 208 A8,8 0 0 1 520 200" fill="rgb(255,255,255)" stroke="rgb(0,0,0)" />
  <text fill="rgb(0,0,0)" font-family="sansserif" font-size="11" font-style="normal" font-weight="normal" x="523" y="226">harpcaller_tcp_listener</text>
  <path d="M 744 200 L 888 200 A8,8 0 0 1 896 208 L 896 232 A8,8 0 0 1 888 240 L 744 240 A8,8 0 0 1 736 232 L 736 208 A8,8 0 0 1 744 200" fill="rgb(255,255,255)" stroke="rgb(0,0,0)" />
  <text fill="rgb(0,0,0)" font-family="sansserif" font-size="11" font-style="normal" font-weight="normal" x="741" y="226">harpcaller_tcp_worker_sup</text>
  <path d="M 752 288 L 896 288 A8,8 0 0 1 904 296 L 904 320 A8,8 0 0 1 896 328 L 752 328 A8,8 0 0 1 744 320 L 744 296 A8,8 0 0 1 752 288" fill="rgb(255,255,255)" stroke="rgb(0,0,0)" />
  <path d="M 748 284 L 892 284 A8,8 0 0 1 900 292 L 900 316 A8,8 0 0 1 892 324 L 748 324 A8,8 0 0 1 740 316 L 740 292 A8,8 0 0 1 748 284" fill="rgb(255,255,255)" stroke="rgb(0,0,0)" />
  <path d="M 744 280 L 888 280 A8,8 0 0 1 896 288 L 896 312 A8,8 0 0 1 888 320 L 744 320 A8,8 0 0 1 736 312 L 736 288 A8,8 0 0 1 744 280" fill="rgb(255,255,255)" stroke="rgb(0,0,0)" />
  <text fill="rgb(0,0,0)" font-family="sansserif" font-size="11" font-style="normal" font-weight="normal" x="753" y="306">harpcaller_tcp_worker</text>
  <path d="M 968 120 L 1112 120 A8,8 0 0 1 1120 128 L 1120 152 A8,8 0 0 1 1112 160 L 968 160 A8,8 0 0 1 960 152 L 960 128 A8,8 0 0 1 968 120" fill="rgb(255,255,255)" stroke="rgb(0,0,0)" />
  <text fill="rgb(0,0,0)" font-family="sansserif" font-size="11" font-style="normal" font-weight="normal" x="983" y="146">harpcaller_call_sup</text>
  <path d="M 968 200 L 1112 200 A8,8 0 0 1 1120 208 L 1120 232 A8,8 0 0 1 1112 240 L 968 240 A8,8 0 0 1 960 232 L 960 208 A8,8 0 0 1 968 200" fill="rgb(255,255,255)" stroke="rgb(0,0,0)" />
  <text fill="rgb(0,0,0)" font-family="sansserif" font-size="11" font-style="normal" font-weight="normal" x="977" y="226">harpcaller_call_queue</text>
  <path d="M 1192 200 L 1336 200 A8,8 0 0 1 1344 208 L 1344 232 A8,8 0 0 1 1336 240 L 1192 240 A8,8 0 0 1 1184 232 L 1184 208 A8,8 0 0 1 1192 200" fill="rgb(255,255,255)" stroke="rgb(0,0,0)" />
  <text fill="rgb(0,0,0)" font-family="sansserif" font-size="11" font-style="normal" font-weight="normal" x="1201" y="226">harpcaller_x509_store</text>
  <path d="M 1416 200 L 1560 200 A8,8 0 0 1 1568 208 L 1568 232 A8,8 0 0 1 1560 240 L 1416 240 A8,8 0 0 1 1408 232 L 1408 208 A8,8 0 0 1 1416 200" fill="rgb(255,255,255)" stroke="rgb(0,0,0)" />
  <text fill="rgb(0,0,0)" font-family="sansserif" font-size="11" font-style="normal" font-weight="normal" x="1425" y="226">harpcaller_caller_sup</text>
  <path d="M 1424 288 L 1568 288 A8,8 0 0 1 1576 296 L 1576 320 A8,8 0 0 1 1568 328 L 1424 328 A8,8 0 0 1 1416 320 L 1416 296 A8,8 0 0 1 1424 288" fill="rgb(255,255,255)" stroke="rgb(0,0,0)" />
  <path d="M 1420 284 L 1564 284 A8,8 0 0 1 1572 292 L 1572 316 A8,8 0 0 1 1564 324 L 1420 324 A8,8 0 0 1 1412 316 L 1412 292 A8,8 0 0 1 1420 284" fill="rgb(255,255,255)" stroke="rgb(0,0,0)" />
  <path d="M 1416 280 L 1560 280 A8,8 0 0 1 1568 288 L 1568 312 A8,8 0 0 1 1560 320 L 1416 320 A8,8 0 0 1 1408 312 L 1408 288 A8,8 0 0 1 1416 280" fill="rgb(255,255,255)" stroke="rgb(0,0,0)" />
  <text fill="rgb(0,0,0)" font-family="sansserif" font-size="11" font-style="normal" font-weight="normal" x="1437" y="306">harpcaller_caller</text>
  <path d="M 1640 120 L 1784 120 A8,8 0 0 1 1792 128 L 1792 152 A8,8 0 0 1 1784 160 L 1640 160 A8,8 0 0 1 1632 152 L 1632 128 A8,8 0 0 1 1640 120" fill="rgb(255,255,255)" stroke="rgb(0,0,0)" />
  <text fill="rgb(0,0,0)" font-family="sansserif" font-size="11" font-style="normal" font-weight="normal" x="1676" y="146">harp_sdb_sup</text>
  <path d="M 1648 208 L 1792 208 A8,8 0 0 1 1800 216 L 1800 240 A8,8 0 0 1 1792 248 L 1648 248 A8,8 0 0 1 1640 240 L 1640 216 A8,8 0 0 1 1648 208" fill="rgb(255,255,255)" stroke="rgb(0,0,0)" />
  <path d="M 1644 204 L 1788 204 A8,8 0 0 1 1796 212 L 1796 236 A8,8 0 0 1 1788 244 L 1644 244 A8,8 0 0 1 1636 236 L 1636 212 A8,8 0 0 1 1644 204" fill="rgb(255,255,255)" stroke="rgb(0,0,0)" />
  <path d="M 1640 200 L 1784 200 A8,8 0 0 1 1792 208 L 1792 232 A8,8 0 0 1 1784 240 L 1640 240 A8,8 0 0 1 1632 232 L 1632 208 A8,8 0 0 1 1640 200" fill="rgb(255,255,255)" stroke="rgb(0,0,0)" />
  <text fill="rgb(0,0,0)" font-family="sansserif" font-size="11" font-style="normal" font-weight="normal" x="1688" y="226">harp_sdb</text>
  <path d="M 1864 120 L 2008 120 A8,8 0 0 1 2016 128 L 2016 152 A8,8 0 0 1 2008 160 L 1864 160 A8,8 0 0 1 1856 152 L 1856 128 A8,8 0 0 1 1864 120" fill="rgb(255,255,255)" stroke="rgb(0,0,0)" />
  <text fill="rgb(0,0,0)" font-family="sansserif" font-size="11" font-style="normal" font-weight="normal" x="1873" y="146">harpcaller_hostdb_sup</text>
  <path d="M 1864 200 L 2008 200 A8,8 0 0 1 2016 208 L 2016 232 A8,8 0 0 1 2008 240 L 1864 240 A8,8 0 0 1 1856 232 L 1856 208 A8,8 0 0 1 1864 200" fill="rgb(255,255,255)" stroke="rgb(0,0,0)" />
  <text fill="rgb(0,0,0)" font-family="sansserif" font-size="11" font-style="normal" font-weight="normal" x="1885" y="226">harpcaller_hostdb</text>
  <path d="M 2088 200 L 2232 200 A8,8 0 0 1 2240 208 L 2240 232 A8,8 0 0 1 2232 240 L 2088 240 A8,8 0 0 1 2080 232 L 2080 208 A8,8 0 0 1 2088 200" fill="rgb(255,255,255)" stroke="rgb(0,0,0)" />
  <text fill="rgb(0,0,0)" font-family="sansserif" font-size="11" font-style="normal" font-weight="normal" x="2085" y="226">harpcaller_hostdb_refresh</text>
  <path d="M 144 80 L 144 100" fill="none" stroke="rgb(0,0,0)" />
  <path d="M 144 100 L 1040 100" fill="none" stroke="rgb(0,0,0)" />
  <path d="M 1040 100 L 1040 112" fill="none" stroke="rgb(0,0,0)" />
  <polygon fill="rgb(0,0,0)" points="1040,119 1036,112 1044,112 1040,119" stroke="rgb(0,0,0)" />
  <path d="M 144 80 L 144 100" fill="none" stroke="rgb(0,0,0)" />
  <path d="M 144 100 L 592 100" fill="none" stroke="rgb(0,0,0)" />
  <path d="M 592 100 L 592 112" fill="none" stroke="rgb(0,0,0)" />
  <polygon fill="rgb(0,0,0)" points="592,119 588,112 596,112 592,119" stroke="rgb(0,0,0)" />
  <path d="M 144 80 L 144 100" fill="none" stroke="rgb(0,0,0)" />
  <path d="M 144 100 L 368 100" fill="none" stroke="rgb(0,0,0)" />
  <path d="M 368 100 L 368 112" fill="none" stroke="rgb(0,0,0)" />
  <polygon fill="rgb(0,0,0)" points="368,119 364,112 372,112 368,119" stroke="rgb(0,0,0)" />
  <path d="M 144 80 L 144 112" fill="none" stroke="rgb(0,0,0)" />
  <polygon fill="rgb(0,0,0)" points="144,119 140,112 148,112 144,119" stroke="rgb(0,0,0)" />
  <path d="M 144 80 L 144 100" fill="none" stroke="rgb(0,0,0)" />
  <path d="M 144 100 L 1712 100" fill="none" stroke="rgb(0,0,0)" />
  <path d="M 1712 100 L 1712 112" fill="none" stroke="rgb(0,0,0)" />
  <polygon fill="rgb(0,0,0)" points="1712,119 1708,112 1716,112 1712,119" stroke="rgb(0,0,0)" />
  <path d="M 144 80 L 144 100" fill="none" stroke="rgb(0,0,0)" />
  <path d="M 144 100 L 1936 100" fill="none" stroke="rgb(0,0,0)" />
  <path d="M 1936 100 L 1936 112" fill="none" stroke="rgb(0,0,0)" />
  <polygon fill="rgb(0,0,0)" points="1936,119 1932,112 1940,112 1936,119" stroke="rgb(0,0,0)" />
  <path d="M 592 160 L 592 192" fill="none" stroke="rgb(0,0,0)" />
  <polygon fill="rgb(0,0,0)" points="592,199 588,192 596,192 592,199" stroke="rgb(0,0,0)" />
  <path d="M 592 160 L 592 180" fill="none" stroke="rgb(0,0,0)" />
  <path d="M 592 180 L 816 180" fill="none" stroke="rgb(0,0,0)" />
  <path d="M 816 180 L 816 192" fill="none" stroke="rgb(0,0,0)" />
  <polygon fill="rgb(0,0,0)" points="816,199 812,192 820,192 816,199" stroke="rgb(0,0,0)" />
  <path d="M 816 240 L 816 272" fill="none" stroke="rgb(0,0,0)" />
  <polygon fill="rgb(0,0,0)" points="816,279 812,272 820,272 816,279" stroke="rgb(0,0,0)" />
  <path d="M 1040 160 L 1040 192" fill="none" stroke="rgb(0,0,0)" />
  <polygon fill="rgb(0,0,0)" points="1040,199 1036,192 1044,192 1040,199" stroke="rgb(0,0,0)" />
  <path d="M 1040 160 L 1040 180" fill="none" stroke="rgb(0,0,0)" />
  <path d="M 1040 180 L 1264 180" fill="none" stroke="rgb(0,0,0)" />
  <path d="M 1264 180 L 1264 192" fill="none" stroke="rgb(0,0,0)" />
  <polygon fill="rgb(0,0,0)" points="1264,199 1260,192 1268,192 1264,199" stroke="rgb(0,0,0)" />
  <path d="M 1040 160 L 1040 180" fill="none" stroke="rgb(0,0,0)" />
  <path d="M 1040 180 L 1488 180" fill="none" stroke="rgb(0,0,0)" />
  <path d="M 1488 180 L 1488 192" fill="none" stroke="rgb(0,0,0)" />
  <polygon fill="rgb(0,0,0)" points="1488,199 1484,192 1492,192 1488,199" stroke="rgb(0,0,0)" />
  <path d="M 1488 240 L 1488 272" fill="none" stroke="rgb(0,0,0)" />
  <polygon fill="rgb(0,0,0)" points="1488,279 1484,272 1492,272 1488,279" stroke="rgb(0,0,0)" />
  <path d="M 1712 160 L 1712 192" fill="none" stroke="rgb(0,0,0)" />
  <polygon fill="rgb(0,0,0)" points="1712,199 1708,192 1716,192 1712,199" stroke="rgb(0,0,0)" />
  <path d="M 1936 160 L 1936 192" fill="none" stroke="rgb(0,0,0)" />
  <polygon fill="rgb(0,0,0)" points="1936,199 1932,192 1940,192 1936,199" stroke="rgb(0,0,0)" />
  <path d="M 1936 160 L 1936 180" fill="none" stroke="rgb(0,0,0)" />
  <path d="M 1936 180 L 2160 180" fill="none" stroke="rgb(0,0,0)" />
  <path d="M 2160 180 L 2160 192" fill="none" stroke="rgb(0,0,0)" />
  <polygon fill="rgb(0,0,0)" points="2160,199 2156,192 2164,192 2160,199" stroke="rgb(0,0,0)" />
</svg>
