<?xml version='1.0' encoding='UTF-8'?>
<!DOCTYPE svg PUBLIC "-//W3C//DTD SVG 1.0//EN" "http://www.w3.org/TR/2001/REC-SVG-20010904/DTD/svg10.dtd">
<svg viewBox="0 0 1184 360" xmlns="http://www.w3.org/2000/svg" xmlns:inkspace="http://www.inkscape.org/namespaces/inkscape" xmlns:xlink="http://www.w3.org/1999/xlink">
  <defs id="defs_block">
    <filter height="1.504" id="filter_blur" inkspace:collect="always" width="1.1575" x="-0.07875" y="-0.252">
      <feGaussianBlur id="feGaussianBlur3780" inkspace:collect="always" stdDeviation="4.2" />
    </filter>
  </defs>
  <title>blockdiag</title>
  <desc>blockdiag {
  orientation = portrait;
  default_shape = roundedbox;

  node_width = 160;
  //span_width = 40;

  korrpcdid_sup -&gt; korrpcdid_tcp_sup;
  korrpcdid_sup -&gt; korrpcdid_call_sup;
  korrpcdid_sup -&gt; korrpc_sdb_sup;
  korrpcdid_tcp_sup -&gt; korrpcdid_tcp_listener;
  korrpcdid_tcp_sup -&gt; korrpcdid_tcp_worker_sup;
  korrpcdid_tcp_worker_sup -&gt; korrpcdid_tcp_worker;
  korrpcdid_call_sup -&gt; korrpcdid_call_queue;
  korrpcdid_call_sup -&gt; korrpcdid_caller_sup;
  korrpcdid_caller_sup -&gt; korrpcdid_caller;
  korrpc_sdb_sup -&gt; korrpc_sdb;

  korrpcdid_tcp_listener  [stacked];
  korrpcdid_tcp_worker    [stacked];
  korrpcdid_caller        [stacked];
  korrpc_sdb              [stacked];

  group data_serving {
    color = "#E6FFCC";
    korrpcdid_tcp_sup;
    korrpcdid_tcp_listener;
    korrpcdid_tcp_worker_sup;
    korrpcdid_tcp_worker;
  }
  group calling_rpc {
    color = "#E6CCFF";
    korrpcdid_call_sup;
    korrpcdid_call_queue;
    korrpcdid_caller_sup;
    korrpcdid_caller;
  }
  group storing_results {
    color = "#FFCCCC";
    korrpc_sdb_sup;
    korrpc_sdb;
  }
  //group ... {
  //  color = "#CCFFFF";
  //}
}

// vim:ft=dot
</desc>
  <rect fill="rgb(230,255,204)" height="220" style="filter:url(#filter_blur)" width="400" x="56" y="110" />
  <rect fill="rgb(230,204,255)" height="220" style="filter:url(#filter_blur)" width="400" x="504" y="110" />
  <rect fill="rgb(255,204,204)" height="140" style="filter:url(#filter_blur)" width="176" x="952" y="110" />
  <path d="M 75 46 L 219 46 A8,8 0 0 1 227 54 L 227 78 A8,8 0 0 1 219 86 L 75 86 A8,8 0 0 1 67 78 L 67 54 A8,8 0 0 1 75 46" fill="rgb(0,0,0)" stroke="rgb(0,0,0)" style="filter:url(#filter_blur);opacity:0.7;fill-opacity:1" />
  <path d="M 75 126 L 219 126 A8,8 0 0 1 227 134 L 227 158 A8,8 0 0 1 219 166 L 75 166 A8,8 0 0 1 67 158 L 67 134 A8,8 0 0 1 75 126" fill="rgb(0,0,0)" stroke="rgb(0,0,0)" style="filter:url(#filter_blur);opacity:0.7;fill-opacity:1" />
  <path d="M 83 214 L 227 214 A8,8 0 0 1 235 222 L 235 246 A8,8 0 0 1 227 254 L 83 254 A8,8 0 0 1 75 246 L 75 222 A8,8 0 0 1 83 214" fill="rgb(0,0,0)" stroke="rgb(0,0,0)" style="filter:url(#filter_blur);opacity:0.7;fill-opacity:1" />
  <path d="M 79 210 L 223 210 A8,8 0 0 1 231 218 L 231 242 A8,8 0 0 1 223 250 L 79 250 A8,8 0 0 1 71 242 L 71 218 A8,8 0 0 1 79 210" fill="rgb(0,0,0)" stroke="rgb(0,0,0)" style="filter:url(#filter_blur);opacity:0.7;fill-opacity:1" />
  <path d="M 75 206 L 219 206 A8,8 0 0 1 227 214 L 227 238 A8,8 0 0 1 219 246 L 75 246 A8,8 0 0 1 67 238 L 67 214 A8,8 0 0 1 75 206" fill="rgb(0,0,0)" stroke="rgb(0,0,0)" style="filter:url(#filter_blur);opacity:0.7;fill-opacity:1" />
  <path d="M 299 206 L 443 206 A8,8 0 0 1 451 214 L 451 238 A8,8 0 0 1 443 246 L 299 246 A8,8 0 0 1 291 238 L 291 214 A8,8 0 0 1 299 206" fill="rgb(0,0,0)" stroke="rgb(0,0,0)" style="filter:url(#filter_blur);opacity:0.7;fill-opacity:1" />
  <path d="M 307 294 L 451 294 A8,8 0 0 1 459 302 L 459 326 A8,8 0 0 1 451 334 L 307 334 A8,8 0 0 1 299 326 L 299 302 A8,8 0 0 1 307 294" fill="rgb(0,0,0)" stroke="rgb(0,0,0)" style="filter:url(#filter_blur);opacity:0.7;fill-opacity:1" />
  <path d="M 303 290 L 447 290 A8,8 0 0 1 455 298 L 455 322 A8,8 0 0 1 447 330 L 303 330 A8,8 0 0 1 295 322 L 295 298 A8,8 0 0 1 303 290" fill="rgb(0,0,0)" stroke="rgb(0,0,0)" style="filter:url(#filter_blur);opacity:0.7;fill-opacity:1" />
  <path d="M 299 286 L 443 286 A8,8 0 0 1 451 294 L 451 318 A8,8 0 0 1 443 326 L 299 326 A8,8 0 0 1 291 318 L 291 294 A8,8 0 0 1 299 286" fill="rgb(0,0,0)" stroke="rgb(0,0,0)" style="filter:url(#filter_blur);opacity:0.7;fill-opacity:1" />
  <path d="M 523 126 L 667 126 A8,8 0 0 1 675 134 L 675 158 A8,8 0 0 1 667 166 L 523 166 A8,8 0 0 1 515 158 L 515 134 A8,8 0 0 1 523 126" fill="rgb(0,0,0)" stroke="rgb(0,0,0)" style="filter:url(#filter_blur);opacity:0.7;fill-opacity:1" />
  <path d="M 523 206 L 667 206 A8,8 0 0 1 675 214 L 675 238 A8,8 0 0 1 667 246 L 523 246 A8,8 0 0 1 515 238 L 515 214 A8,8 0 0 1 523 206" fill="rgb(0,0,0)" stroke="rgb(0,0,0)" style="filter:url(#filter_blur);opacity:0.7;fill-opacity:1" />
  <path d="M 747 206 L 891 206 A8,8 0 0 1 899 214 L 899 238 A8,8 0 0 1 891 246 L 747 246 A8,8 0 0 1 739 238 L 739 214 A8,8 0 0 1 747 206" fill="rgb(0,0,0)" stroke="rgb(0,0,0)" style="filter:url(#filter_blur);opacity:0.7;fill-opacity:1" />
  <path d="M 755 294 L 899 294 A8,8 0 0 1 907 302 L 907 326 A8,8 0 0 1 899 334 L 755 334 A8,8 0 0 1 747 326 L 747 302 A8,8 0 0 1 755 294" fill="rgb(0,0,0)" stroke="rgb(0,0,0)" style="filter:url(#filter_blur);opacity:0.7;fill-opacity:1" />
  <path d="M 751 290 L 895 290 A8,8 0 0 1 903 298 L 903 322 A8,8 0 0 1 895 330 L 751 330 A8,8 0 0 1 743 322 L 743 298 A8,8 0 0 1 751 290" fill="rgb(0,0,0)" stroke="rgb(0,0,0)" style="filter:url(#filter_blur);opacity:0.7;fill-opacity:1" />
  <path d="M 747 286 L 891 286 A8,8 0 0 1 899 294 L 899 318 A8,8 0 0 1 891 326 L 747 326 A8,8 0 0 1 739 318 L 739 294 A8,8 0 0 1 747 286" fill="rgb(0,0,0)" stroke="rgb(0,0,0)" style="filter:url(#filter_blur);opacity:0.7;fill-opacity:1" />
  <path d="M 971 126 L 1115 126 A8,8 0 0 1 1123 134 L 1123 158 A8,8 0 0 1 1115 166 L 971 166 A8,8 0 0 1 963 158 L 963 134 A8,8 0 0 1 971 126" fill="rgb(0,0,0)" stroke="rgb(0,0,0)" style="filter:url(#filter_blur);opacity:0.7;fill-opacity:1" />
  <path d="M 979 214 L 1123 214 A8,8 0 0 1 1131 222 L 1131 246 A8,8 0 0 1 1123 254 L 979 254 A8,8 0 0 1 971 246 L 971 222 A8,8 0 0 1 979 214" fill="rgb(0,0,0)" stroke="rgb(0,0,0)" style="filter:url(#filter_blur);opacity:0.7;fill-opacity:1" />
  <path d="M 975 210 L 1119 210 A8,8 0 0 1 1127 218 L 1127 242 A8,8 0 0 1 1119 250 L 975 250 A8,8 0 0 1 967 242 L 967 218 A8,8 0 0 1 975 210" fill="rgb(0,0,0)" stroke="rgb(0,0,0)" style="filter:url(#filter_blur);opacity:0.7;fill-opacity:1" />
  <path d="M 971 206 L 1115 206 A8,8 0 0 1 1123 214 L 1123 238 A8,8 0 0 1 1115 246 L 971 246 A8,8 0 0 1 963 238 L 963 214 A8,8 0 0 1 971 206" fill="rgb(0,0,0)" stroke="rgb(0,0,0)" style="filter:url(#filter_blur);opacity:0.7;fill-opacity:1" />
  <path d="M 72 40 L 216 40 A8,8 0 0 1 224 48 L 224 72 A8,8 0 0 1 216 80 L 72 80 A8,8 0 0 1 64 72 L 64 48 A8,8 0 0 1 72 40" fill="rgb(255,255,255)" stroke="rgb(0,0,0)" />
  <text fill="rgb(0,0,0)" font-family="sansserif" font-size="11" font-style="normal" font-weight="normal" x="105" y="66">korrpcdid_sup</text>
  <path d="M 72 120 L 216 120 A8,8 0 0 1 224 128 L 224 152 A8,8 0 0 1 216 160 L 72 160 A8,8 0 0 1 64 152 L 64 128 A8,8 0 0 1 72 120" fill="rgb(255,255,255)" stroke="rgb(0,0,0)" />
  <text fill="rgb(0,0,0)" font-family="sansserif" font-size="11" font-style="normal" font-weight="normal" x="93" y="146">korrpcdid_tcp_sup</text>
  <path d="M 80 208 L 224 208 A8,8 0 0 1 232 216 L 232 240 A8,8 0 0 1 224 248 L 80 248 A8,8 0 0 1 72 240 L 72 216 A8,8 0 0 1 80 208" fill="rgb(255,255,255)" stroke="rgb(0,0,0)" />
  <path d="M 76 204 L 220 204 A8,8 0 0 1 228 212 L 228 236 A8,8 0 0 1 220 244 L 76 244 A8,8 0 0 1 68 236 L 68 212 A8,8 0 0 1 76 204" fill="rgb(255,255,255)" stroke="rgb(0,0,0)" />
  <path d="M 72 200 L 216 200 A8,8 0 0 1 224 208 L 224 232 A8,8 0 0 1 216 240 L 72 240 A8,8 0 0 1 64 232 L 64 208 A8,8 0 0 1 72 200" fill="rgb(255,255,255)" stroke="rgb(0,0,0)" />
  <text fill="rgb(0,0,0)" font-family="sansserif" font-size="11" font-style="normal" font-weight="normal" x="78" y="226">korrpcdid_tcp_listener</text>
  <path d="M 296 200 L 440 200 A8,8 0 0 1 448 208 L 448 232 A8,8 0 0 1 440 240 L 296 240 A8,8 0 0 1 288 232 L 288 208 A8,8 0 0 1 296 200" fill="rgb(255,255,255)" stroke="rgb(0,0,0)" />
  <text fill="rgb(0,0,0)" font-family="sansserif" font-size="11" font-style="normal" font-weight="normal" x="296" y="226">korrpcdid_tcp_worker_sup</text>
  <path d="M 304 288 L 448 288 A8,8 0 0 1 456 296 L 456 320 A8,8 0 0 1 448 328 L 304 328 A8,8 0 0 1 296 320 L 296 296 A8,8 0 0 1 304 288" fill="rgb(255,255,255)" stroke="rgb(0,0,0)" />
  <path d="M 300 284 L 444 284 A8,8 0 0 1 452 292 L 452 316 A8,8 0 0 1 444 324 L 300 324 A8,8 0 0 1 292 316 L 292 292 A8,8 0 0 1 300 284" fill="rgb(255,255,255)" stroke="rgb(0,0,0)" />
  <path d="M 296 280 L 440 280 A8,8 0 0 1 448 288 L 448 312 A8,8 0 0 1 440 320 L 296 320 A8,8 0 0 1 288 312 L 288 288 A8,8 0 0 1 296 280" fill="rgb(255,255,255)" stroke="rgb(0,0,0)" />
  <text fill="rgb(0,0,0)" font-family="sansserif" font-size="11" font-style="normal" font-weight="normal" x="308" y="306">korrpcdid_tcp_worker</text>
  <path d="M 520 120 L 664 120 A8,8 0 0 1 672 128 L 672 152 A8,8 0 0 1 664 160 L 520 160 A8,8 0 0 1 512 152 L 512 128 A8,8 0 0 1 520 120" fill="rgb(255,255,255)" stroke="rgb(0,0,0)" />
  <text fill="rgb(0,0,0)" font-family="sansserif" font-size="11" font-style="normal" font-weight="normal" x="538" y="146">korrpcdid_call_sup</text>
  <path d="M 520 200 L 664 200 A8,8 0 0 1 672 208 L 672 232 A8,8 0 0 1 664 240 L 520 240 A8,8 0 0 1 512 232 L 512 208 A8,8 0 0 1 520 200" fill="rgb(255,255,255)" stroke="rgb(0,0,0)" />
  <text fill="rgb(0,0,0)" font-family="sansserif" font-size="11" font-style="normal" font-weight="normal" x="532" y="226">korrpcdid_call_queue</text>
  <path d="M 744 200 L 888 200 A8,8 0 0 1 896 208 L 896 232 A8,8 0 0 1 888 240 L 744 240 A8,8 0 0 1 736 232 L 736 208 A8,8 0 0 1 744 200" fill="rgb(255,255,255)" stroke="rgb(0,0,0)" />
  <text fill="rgb(0,0,0)" font-family="sansserif" font-size="11" font-style="normal" font-weight="normal" x="756" y="226">korrpcdid_caller_sup</text>
  <path d="M 752 288 L 896 288 A8,8 0 0 1 904 296 L 904 320 A8,8 0 0 1 896 328 L 752 328 A8,8 0 0 1 744 320 L 744 296 A8,8 0 0 1 752 288" fill="rgb(255,255,255)" stroke="rgb(0,0,0)" />
  <path d="M 748 284 L 892 284 A8,8 0 0 1 900 292 L 900 316 A8,8 0 0 1 892 324 L 748 324 A8,8 0 0 1 740 316 L 740 292 A8,8 0 0 1 748 284" fill="rgb(255,255,255)" stroke="rgb(0,0,0)" />
  <path d="M 744 280 L 888 280 A8,8 0 0 1 896 288 L 896 312 A8,8 0 0 1 888 320 L 744 320 A8,8 0 0 1 736 312 L 736 288 A8,8 0 0 1 744 280" fill="rgb(255,255,255)" stroke="rgb(0,0,0)" />
  <text fill="rgb(0,0,0)" font-family="sansserif" font-size="11" font-style="normal" font-weight="normal" x="768" y="306">korrpcdid_caller</text>
  <path d="M 968 120 L 1112 120 A8,8 0 0 1 1120 128 L 1120 152 A8,8 0 0 1 1112 160 L 968 160 A8,8 0 0 1 960 152 L 960 128 A8,8 0 0 1 968 120" fill="rgb(255,255,255)" stroke="rgb(0,0,0)" />
  <text fill="rgb(0,0,0)" font-family="sansserif" font-size="11" font-style="normal" font-weight="normal" x="998" y="146">korrpc_sdb_sup</text>
  <path d="M 976 208 L 1120 208 A8,8 0 0 1 1128 216 L 1128 240 A8,8 0 0 1 1120 248 L 976 248 A8,8 0 0 1 968 240 L 968 216 A8,8 0 0 1 976 208" fill="rgb(255,255,255)" stroke="rgb(0,0,0)" />
  <path d="M 972 204 L 1116 204 A8,8 0 0 1 1124 212 L 1124 236 A8,8 0 0 1 1116 244 L 972 244 A8,8 0 0 1 964 236 L 964 212 A8,8 0 0 1 972 204" fill="rgb(255,255,255)" stroke="rgb(0,0,0)" />
  <path d="M 968 200 L 1112 200 A8,8 0 0 1 1120 208 L 1120 232 A8,8 0 0 1 1112 240 L 968 240 A8,8 0 0 1 960 232 L 960 208 A8,8 0 0 1 968 200" fill="rgb(255,255,255)" stroke="rgb(0,0,0)" />
  <text fill="rgb(0,0,0)" font-family="sansserif" font-size="11" font-style="normal" font-weight="normal" x="1010" y="226">korrpc_sdb</text>
  <path d="M 144 80 L 144 100" fill="none" stroke="rgb(0,0,0)" />
  <path d="M 144 100 L 592 100" fill="none" stroke="rgb(0,0,0)" />
  <path d="M 592 100 L 592 112" fill="none" stroke="rgb(0,0,0)" />
  <polygon fill="rgb(0,0,0)" points="592,119 588,112 596,112 592,119" stroke="rgb(0,0,0)" />
  <path d="M 144 80 L 144 112" fill="none" stroke="rgb(0,0,0)" />
  <polygon fill="rgb(0,0,0)" points="144,119 140,112 148,112 144,119" stroke="rgb(0,0,0)" />
  <path d="M 144 80 L 144 100" fill="none" stroke="rgb(0,0,0)" />
  <path d="M 144 100 L 1040 100" fill="none" stroke="rgb(0,0,0)" />
  <path d="M 1040 100 L 1040 112" fill="none" stroke="rgb(0,0,0)" />
  <polygon fill="rgb(0,0,0)" points="1040,119 1036,112 1044,112 1040,119" stroke="rgb(0,0,0)" />
  <path d="M 144 160 L 144 192" fill="none" stroke="rgb(0,0,0)" />
  <polygon fill="rgb(0,0,0)" points="144,199 140,192 148,192 144,199" stroke="rgb(0,0,0)" />
  <path d="M 144 160 L 144 180" fill="none" stroke="rgb(0,0,0)" />
  <path d="M 144 180 L 368 180" fill="none" stroke="rgb(0,0,0)" />
  <path d="M 368 180 L 368 192" fill="none" stroke="rgb(0,0,0)" />
  <polygon fill="rgb(0,0,0)" points="368,199 364,192 372,192 368,199" stroke="rgb(0,0,0)" />
  <path d="M 368 240 L 368 272" fill="none" stroke="rgb(0,0,0)" />
  <polygon fill="rgb(0,0,0)" points="368,279 364,272 372,272 368,279" stroke="rgb(0,0,0)" />
  <path d="M 592 160 L 592 192" fill="none" stroke="rgb(0,0,0)" />
  <polygon fill="rgb(0,0,0)" points="592,199 588,192 596,192 592,199" stroke="rgb(0,0,0)" />
  <path d="M 592 160 L 592 180" fill="none" stroke="rgb(0,0,0)" />
  <path d="M 592 180 L 816 180" fill="none" stroke="rgb(0,0,0)" />
  <path d="M 816 180 L 816 192" fill="none" stroke="rgb(0,0,0)" />
  <polygon fill="rgb(0,0,0)" points="816,199 812,192 820,192 816,199" stroke="rgb(0,0,0)" />
  <path d="M 816 240 L 816 272" fill="none" stroke="rgb(0,0,0)" />
  <polygon fill="rgb(0,0,0)" points="816,279 812,272 820,272 816,279" stroke="rgb(0,0,0)" />
  <path d="M 1040 160 L 1040 192" fill="none" stroke="rgb(0,0,0)" />
  <polygon fill="rgb(0,0,0)" points="1040,199 1036,192 1044,192 1040,199" stroke="rgb(0,0,0)" />
</svg>
